<?xml version="1.0" encoding="UTF-8" standalone="no"?>
<!DOCTYPE svg PUBLIC "-//W3C//DTD SVG 1.1//EN"
 "http://www.w3.org/Graphics/SVG/1.1/DTD/svg11.dtd">
<!-- Generated by graphviz version 3.0.0 (20220226.1711)
 -->
<!-- Title: dependencies Pages: 1 -->
<svg width="5734pt" height="247pt"
 viewBox="0.00 0.00 5734.00 246.80" xmlns="http://www.w3.org/2000/svg" xmlns:xlink="http://www.w3.org/1999/xlink">
<g id="graph0" class="graph" transform="scale(1 1) rotate(0) translate(4 242.8)">
<title>dependencies</title>
<polygon fill="white" stroke="transparent" points="-4,4 -4,-242.8 5730,-242.8 5730,4 -4,4"/>
<text text-anchor="middle" x="2863" y="-8.2" font-family="sans-serif" font-size="14.00">dependencies</text>
<g id="clust1" class="cluster">
<title>cluster_AppModule</title>
<polygon fill="none" stroke="black" stroke-dasharray="1,5" points="8,-32.8 8,-230.8 5718,-230.8 5718,-32.8 8,-32.8"/>
</g>
<g id="clust2" class="cluster">
<title>cluster_AppModule_declarations</title>
<polygon fill="none" stroke="black" points="168,-40.8 168,-92.8 5710,-92.8 5710,-40.8 168,-40.8"/>
</g>
<g id="clust32" class="cluster">
<title>cluster_AppModule_imports</title>
<polygon fill="none" stroke="black" points="16,-40.8 16,-92.8 160,-92.8 160,-40.8 16,-40.8"/>
</g>
<g id="clust34" class="cluster">
<title>cluster_AppModule_bootstrap</title>
<polygon fill="none" stroke="black" points="2756,-170.8 2756,-222.8 2880,-222.8 2880,-170.8 2756,-170.8"/>
</g>
<!-- AppComponent -->
<g id="node1" class="node">
<title>AppComponent</title>
<polygon fill="#ffffb3" stroke="black" points="5701.94,-84.8 5596.06,-84.8 5596.06,-48.8 5701.94,-48.8 5701.94,-84.8"/>
<text text-anchor="middle" x="5649" y="-62.6" font-family="Times,serif" font-size="14.00">AppComponent</text>
</g>
<!-- AppModule -->
<g id="node30" class="node">
<title>AppModule</title>
<polygon fill="#8dd3c7" stroke="black" points="2859.66,-149.8 2856.66,-153.8 2835.66,-153.8 2832.66,-149.8 2776.34,-149.8 2776.34,-113.8 2859.66,-113.8 2859.66,-149.8"/>
<text text-anchor="middle" x="2818" y="-127.6" font-family="Times,serif" font-size="14.00">AppModule</text>
</g>
<!-- AppComponent&#45;&gt;AppModule -->
<g id="edge1" class="edge">
<title>AppComponent&#45;&gt;AppModule</title>
<path fill="none" stroke="black" d="M5649,-85.18C5649,-109.08 5649,-147.8 5649,-147.8 5649,-147.8 2869.94,-147.8 2869.94,-147.8"/>
<polygon fill="black" stroke="black" points="2869.94,-144.3 2859.94,-147.8 2869.94,-151.3 2869.94,-144.3"/>
</g>
<!-- CheckIndComponent -->
<g id="node2" class="node">
<title>CheckIndComponent</title>
<polygon fill="#ffffb3" stroke="black" points="5577.76,-84.8 5442.24,-84.8 5442.24,-48.8 5577.76,-48.8 5577.76,-84.8"/>
<text text-anchor="middle" x="5510" y="-62.6" font-family="Times,serif" font-size="14.00">CheckIndComponent</text>
</g>
<!-- CheckIndComponent&#45;&gt;AppModule -->
<g id="edge2" class="edge">
<title>CheckIndComponent&#45;&gt;AppModule</title>
<path fill="none" stroke="black" d="M5510,-85.12C5510,-108.46 5510,-145.8 5510,-145.8 5510,-145.8 2869.74,-145.8 2869.74,-145.8"/>
<polygon fill="black" stroke="black" points="2869.74,-142.3 2859.74,-145.8 2869.74,-149.3 2869.74,-142.3"/>
</g>
<!-- ContainedSubtablesComponent -->
<g id="node3" class="node">
<title>ContainedSubtablesComponent</title>
<polygon fill="#ffffb3" stroke="black" points="5423.82,-84.8 5230.18,-84.8 5230.18,-48.8 5423.82,-48.8 5423.82,-84.8"/>
<text text-anchor="middle" x="5327" y="-62.6" font-family="Times,serif" font-size="14.00">ContainedSubtablesComponent</text>
</g>
<!-- ContainedSubtablesComponent&#45;&gt;AppModule -->
<g id="edge3" class="edge">
<title>ContainedSubtablesComponent&#45;&gt;AppModule</title>
<path fill="none" stroke="black" d="M5327,-84.81C5327,-107.29 5327,-142.8 5327,-142.8 5327,-142.8 2869.71,-142.8 2869.71,-142.8"/>
<polygon fill="black" stroke="black" points="2869.71,-139.3 2859.71,-142.8 2869.71,-146.3 2869.71,-139.3"/>
</g>
<!-- CustomFunctionalDependencySideBarComponent -->
<g id="node4" class="node">
<title>CustomFunctionalDependencySideBarComponent</title>
<polygon fill="#ffffb3" stroke="black" points="5211.85,-84.8 4912.15,-84.8 4912.15,-48.8 5211.85,-48.8 5211.85,-84.8"/>
<text text-anchor="middle" x="5062" y="-62.6" font-family="Times,serif" font-size="14.00">CustomFunctionalDependencySideBarComponent</text>
</g>
<!-- CustomFunctionalDependencySideBarComponent&#45;&gt;AppModule -->
<g id="edge4" class="edge">
<title>CustomFunctionalDependencySideBarComponent&#45;&gt;AppModule</title>
<path fill="none" stroke="black" d="M5062,-85.09C5062,-107.01 5062,-140.8 5062,-140.8 5062,-140.8 2869.84,-140.8 2869.84,-140.8"/>
<polygon fill="black" stroke="black" points="2869.84,-137.3 2859.84,-140.8 2869.84,-144.3 2869.84,-137.3"/>
</g>
<!-- DatabaseTableViewerComponent -->
<g id="node5" class="node">
<title>DatabaseTableViewerComponent</title>
<polygon fill="#ffffb3" stroke="black" points="4893.7,-84.8 4688.3,-84.8 4688.3,-48.8 4893.7,-48.8 4893.7,-84.8"/>
<text text-anchor="middle" x="4791" y="-62.6" font-family="Times,serif" font-size="14.00">DatabaseTableViewerComponent</text>
</g>
<!-- DatabaseTableViewerComponent&#45;&gt;AppModule -->
<g id="edge5" class="edge">
<title>DatabaseTableViewerComponent&#45;&gt;AppModule</title>
<path fill="none" stroke="black" d="M4791,-85.08C4791,-106.12 4791,-137.8 4791,-137.8 4791,-137.8 2869.66,-137.8 2869.66,-137.8"/>
<polygon fill="black" stroke="black" points="2869.66,-134.3 2859.66,-137.8 2869.66,-141.3 2869.66,-134.3"/>
</g>
<!-- DeleteTableDialogComponent -->
<g id="node6" class="node">
<title>DeleteTableDialogComponent</title>
<polygon fill="#ffffb3" stroke="black" points="4669.84,-84.8 4482.16,-84.8 4482.16,-48.8 4669.84,-48.8 4669.84,-84.8"/>
<text text-anchor="middle" x="4576" y="-62.6" font-family="Times,serif" font-size="14.00">DeleteTableDialogComponent</text>
</g>
<!-- DeleteTableDialogComponent&#45;&gt;AppModule -->
<g id="edge6" class="edge">
<title>DeleteTableDialogComponent&#45;&gt;AppModule</title>
<path fill="none" stroke="black" d="M4576,-84.93C4576,-105.37 4576,-135.8 4576,-135.8 4576,-135.8 2869.72,-135.8 2869.72,-135.8"/>
<polygon fill="black" stroke="black" points="2869.72,-132.3 2859.72,-135.8 2869.72,-139.3 2869.72,-132.3"/>
</g>
<!-- DirectDimensionDialogComponent -->
<g id="node7" class="node">
<title>DirectDimensionDialogComponent</title>
<polygon fill="#ffffb3" stroke="black" points="4463.86,-84.8 4248.14,-84.8 4248.14,-48.8 4463.86,-48.8 4463.86,-84.8"/>
<text text-anchor="middle" x="4356" y="-62.6" font-family="Times,serif" font-size="14.00">DirectDimensionDialogComponent</text>
</g>
<!-- DirectDimensionDialogComponent&#45;&gt;AppModule -->
<g id="edge7" class="edge">
<title>DirectDimensionDialogComponent&#45;&gt;AppModule</title>
<path fill="none" stroke="black" d="M4356,-85.11C4356,-104.95 4356,-133.8 4356,-133.8 4356,-133.8 2869.94,-133.8 2869.94,-133.8"/>
<polygon fill="black" stroke="black" points="2869.94,-130.3 2859.94,-133.8 2869.94,-137.3 2869.94,-130.3"/>
</g>
<!-- ForeignKeysComponent -->
<g id="node8" class="node">
<title>ForeignKeysComponent</title>
<polygon fill="#ffffb3" stroke="black" points="4229.66,-84.8 4076.34,-84.8 4076.34,-48.8 4229.66,-48.8 4229.66,-84.8"/>
<text text-anchor="middle" x="4153" y="-62.6" font-family="Times,serif" font-size="14.00">ForeignKeysComponent</text>
</g>
<!-- ForeignKeysComponent&#45;&gt;AppModule -->
<g id="edge8" class="edge">
<title>ForeignKeysComponent&#45;&gt;AppModule</title>
<path fill="none" stroke="black" d="M4153,-84.97C4153,-103.89 4153,-130.8 4153,-130.8 4153,-130.8 2869.79,-130.8 2869.79,-130.8"/>
<polygon fill="black" stroke="black" points="2869.79,-127.3 2859.79,-130.8 2869.79,-134.3 2869.79,-127.3"/>
</g>
<!-- GraphElementComponent -->
<g id="node9" class="node">
<title>GraphElementComponent</title>
<polygon fill="#ffffb3" stroke="black" points="4058.47,-84.8 3895.53,-84.8 3895.53,-48.8 4058.47,-48.8 4058.47,-84.8"/>
<text text-anchor="middle" x="3977" y="-62.6" font-family="Times,serif" font-size="14.00">GraphElementComponent</text>
</g>
<!-- GraphElementComponent&#45;&gt;AppModule -->
<g id="edge9" class="edge">
<title>GraphElementComponent&#45;&gt;AppModule</title>
<path fill="none" stroke="black" d="M3977,-85.07C3977,-103.36 3977,-128.8 3977,-128.8 3977,-128.8 2869.93,-128.8 2869.93,-128.8"/>
<polygon fill="black" stroke="black" points="2869.93,-125.3 2859.93,-128.8 2869.93,-132.3 2869.93,-125.3"/>
</g>
<!-- HomeComponent -->
<g id="node10" class="node">
<title>HomeComponent</title>
<polygon fill="#ffffb3" stroke="black" points="3877.55,-84.8 3762.45,-84.8 3762.45,-48.8 3877.55,-48.8 3877.55,-84.8"/>
<text text-anchor="middle" x="3820" y="-62.6" font-family="Times,serif" font-size="14.00">HomeComponent</text>
</g>
<!-- HomeComponent&#45;&gt;AppModule -->
<g id="edge10" class="edge">
<title>HomeComponent&#45;&gt;AppModule</title>
<path fill="none" stroke="black" d="M3820,-84.82C3820,-102.17 3820,-125.8 3820,-125.8 3820,-125.8 2869.78,-125.8 2869.78,-125.8"/>
<polygon fill="black" stroke="black" points="2869.78,-122.3 2859.78,-125.8 2869.78,-129.3 2869.78,-122.3"/>
</g>
<!-- JoinDialogComponent -->
<g id="node11" class="node">
<title>JoinDialogComponent</title>
<polygon fill="#ffffb3" stroke="black" points="3744.27,-84.8 3601.73,-84.8 3601.73,-48.8 3744.27,-48.8 3744.27,-84.8"/>
<text text-anchor="middle" x="3673" y="-62.6" font-family="Times,serif" font-size="14.00">JoinDialogComponent</text>
</g>
<!-- JoinDialogComponent&#45;&gt;AppModule -->
<g id="edge11" class="edge">
<title>JoinDialogComponent&#45;&gt;AppModule</title>
<path fill="none" stroke="black" d="M3673,-84.84C3673,-101.53 3673,-123.8 3673,-123.8 3673,-123.8 2869.82,-123.8 2869.82,-123.8"/>
<polygon fill="black" stroke="black" points="2869.82,-120.3 2859.82,-123.8 2869.82,-127.3 2869.82,-120.3"/>
</g>
<!-- KeysComponent -->
<g id="node12" class="node">
<title>KeysComponent</title>
<polygon fill="#ffffb3" stroke="black" points="3584.1,-84.8 3473.9,-84.8 3473.9,-48.8 3584.1,-48.8 3584.1,-84.8"/>
<text text-anchor="middle" x="3529" y="-62.6" font-family="Times,serif" font-size="14.00">KeysComponent</text>
</g>
<!-- KeysComponent&#45;&gt;AppModule -->
<g id="edge12" class="edge">
<title>KeysComponent&#45;&gt;AppModule</title>
<path fill="none" stroke="black" d="M3529,-84.81C3529,-100.85 3529,-121.8 3529,-121.8 3529,-121.8 2869.82,-121.8 2869.82,-121.8"/>
<polygon fill="black" stroke="black" points="2869.82,-118.3 2859.82,-121.8 2869.82,-125.3 2869.82,-118.3"/>
</g>
<!-- LoadSavedSchemaComponent -->
<g id="node13" class="node">
<title>LoadSavedSchemaComponent</title>
<polygon fill="#ffffb3" stroke="black" points="3456.13,-84.8 3267.87,-84.8 3267.87,-48.8 3456.13,-48.8 3456.13,-84.8"/>
<text text-anchor="middle" x="3362" y="-62.6" font-family="Times,serif" font-size="14.00">LoadSavedSchemaComponent</text>
</g>
<!-- LoadSavedSchemaComponent&#45;&gt;AppModule -->
<g id="edge13" class="edge">
<title>LoadSavedSchemaComponent&#45;&gt;AppModule</title>
<path fill="none" stroke="black" d="M3362,-84.99C3362,-99.98 3362,-118.8 3362,-118.8 3362,-118.8 2869.78,-118.8 2869.78,-118.8"/>
<polygon fill="black" stroke="black" points="2869.78,-115.3 2859.78,-118.8 2869.78,-122.3 2869.78,-115.3"/>
</g>
<!-- MetanomeResultsViewerComponent -->
<g id="node14" class="node">
<title>MetanomeResultsViewerComponent</title>
<polygon fill="#ffffb3" stroke="black" points="3249.63,-84.8 3026.37,-84.8 3026.37,-48.8 3249.63,-48.8 3249.63,-84.8"/>
<text text-anchor="middle" x="3138" y="-62.6" font-family="Times,serif" font-size="14.00">MetanomeResultsViewerComponent</text>
</g>
<!-- MetanomeResultsViewerComponent&#45;&gt;AppModule -->
<g id="edge14" class="edge">
<title>MetanomeResultsViewerComponent&#45;&gt;AppModule</title>
<path fill="none" stroke="black" d="M3138,-84.85C3138,-99.17 3138,-116.8 3138,-116.8 3138,-116.8 2869.83,-116.8 2869.83,-116.8"/>
<polygon fill="black" stroke="black" points="2869.83,-113.3 2859.83,-116.8 2869.83,-120.3 2869.83,-113.3"/>
</g>
<!-- MetanomeSettingsComponent -->
<g id="node15" class="node">
<title>MetanomeSettingsComponent</title>
<polygon fill="#ffffb3" stroke="black" points="3008.32,-84.8 2821.68,-84.8 2821.68,-48.8 3008.32,-48.8 3008.32,-84.8"/>
<text text-anchor="middle" x="2915" y="-62.6" font-family="Times,serif" font-size="14.00">MetanomeSettingsComponent</text>
</g>
<!-- MetanomeSettingsComponent&#45;&gt;AppModule -->
<g id="edge15" class="edge">
<title>MetanomeSettingsComponent&#45;&gt;AppModule</title>
<path fill="none" stroke="black" d="M2840.84,-84.91C2840.84,-84.91 2840.84,-103.79 2840.84,-103.79"/>
<polygon fill="black" stroke="black" points="2837.34,-103.79 2840.84,-113.79 2844.34,-103.79 2837.34,-103.79"/>
</g>
<!-- PersistSchemaComponent -->
<g id="node16" class="node">
<title>PersistSchemaComponent</title>
<polygon fill="#ffffb3" stroke="black" points="2803.49,-84.8 2640.51,-84.8 2640.51,-48.8 2803.49,-48.8 2803.49,-84.8"/>
<text text-anchor="middle" x="2722" y="-62.6" font-family="Times,serif" font-size="14.00">PersistSchemaComponent</text>
</g>
<!-- PersistSchemaComponent&#45;&gt;AppModule -->
<g id="edge16" class="edge">
<title>PersistSchemaComponent&#45;&gt;AppModule</title>
<path fill="none" stroke="black" d="M2789.83,-84.91C2789.83,-84.91 2789.83,-103.79 2789.83,-103.79"/>
<polygon fill="black" stroke="black" points="2786.33,-103.79 2789.83,-113.79 2793.33,-103.79 2786.33,-103.79"/>
</g>
<!-- SaveSchemaEditingComponent -->
<g id="node17" class="node">
<title>SaveSchemaEditingComponent</title>
<polygon fill="#ffffb3" stroke="black" points="2622.08,-84.8 2427.92,-84.8 2427.92,-48.8 2622.08,-48.8 2622.08,-84.8"/>
<text text-anchor="middle" x="2525" y="-62.6" font-family="Times,serif" font-size="14.00">SaveSchemaEditingComponent</text>
</g>
<!-- SaveSchemaEditingComponent&#45;&gt;AppModule -->
<g id="edge17" class="edge">
<title>SaveSchemaEditingComponent&#45;&gt;AppModule</title>
<path fill="none" stroke="black" d="M2525,-84.85C2525,-99.17 2525,-116.8 2525,-116.8 2525,-116.8 2766.33,-116.8 2766.33,-116.8"/>
<polygon fill="black" stroke="black" points="2766.33,-120.3 2776.33,-116.8 2766.33,-113.3 2766.33,-120.3"/>
</g>
<!-- SbbOptionAllComponent -->
<g id="node18" class="node">
<title>SbbOptionAllComponent</title>
<polygon fill="#ffffb3" stroke="black" points="2409.9,-84.8 2250.1,-84.8 2250.1,-48.8 2409.9,-48.8 2409.9,-84.8"/>
<text text-anchor="middle" x="2330" y="-62.6" font-family="Times,serif" font-size="14.00">SbbOptionAllComponent</text>
</g>
<!-- SbbOptionAllComponent&#45;&gt;AppModule -->
<g id="edge18" class="edge">
<title>SbbOptionAllComponent&#45;&gt;AppModule</title>
<path fill="none" stroke="black" d="M2330,-84.99C2330,-99.98 2330,-118.8 2330,-118.8 2330,-118.8 2765.97,-118.8 2765.97,-118.8"/>
<polygon fill="black" stroke="black" points="2765.97,-122.3 2775.97,-118.8 2765.97,-115.3 2765.97,-122.3"/>
</g>
<!-- SchemaEditingComponent -->
<g id="node19" class="node">
<title>SchemaEditingComponent</title>
<polygon fill="#ffffb3" stroke="black" points="2232.37,-84.8 2065.63,-84.8 2065.63,-48.8 2232.37,-48.8 2232.37,-84.8"/>
<text text-anchor="middle" x="2149" y="-62.6" font-family="Times,serif" font-size="14.00">SchemaEditingComponent</text>
</g>
<!-- SchemaEditingComponent&#45;&gt;AppModule -->
<g id="edge19" class="edge">
<title>SchemaEditingComponent&#45;&gt;AppModule</title>
<path fill="none" stroke="black" d="M2149,-84.81C2149,-100.85 2149,-121.8 2149,-121.8 2149,-121.8 2766.15,-121.8 2766.15,-121.8"/>
<polygon fill="black" stroke="black" points="2766.15,-125.3 2776.15,-121.8 2766.15,-118.3 2766.15,-125.3"/>
</g>
<!-- SchemaEditingSideBarComponent -->
<g id="node20" class="node">
<title>SchemaEditingSideBarComponent</title>
<polygon fill="#ffffb3" stroke="black" points="2047.97,-84.8 1836.03,-84.8 1836.03,-48.8 2047.97,-48.8 2047.97,-84.8"/>
<text text-anchor="middle" x="1942" y="-62.6" font-family="Times,serif" font-size="14.00">SchemaEditingSideBarComponent</text>
</g>
<!-- SchemaEditingSideBarComponent&#45;&gt;AppModule -->
<g id="edge20" class="edge">
<title>SchemaEditingSideBarComponent&#45;&gt;AppModule</title>
<path fill="none" stroke="black" d="M1942,-84.84C1942,-101.53 1942,-123.8 1942,-123.8 1942,-123.8 2766.04,-123.8 2766.04,-123.8"/>
<polygon fill="black" stroke="black" points="2766.04,-127.3 2776.04,-123.8 2766.04,-120.3 2766.04,-127.3"/>
</g>
<!-- SchemaGraphComponent -->
<g id="node21" class="node">
<title>SchemaGraphComponent</title>
<polygon fill="#ffffb3" stroke="black" points="1818.14,-84.8 1657.86,-84.8 1657.86,-48.8 1818.14,-48.8 1818.14,-84.8"/>
<text text-anchor="middle" x="1738" y="-62.6" font-family="Times,serif" font-size="14.00">SchemaGraphComponent</text>
</g>
<!-- SchemaGraphComponent&#45;&gt;AppModule -->
<g id="edge21" class="edge">
<title>SchemaGraphComponent&#45;&gt;AppModule</title>
<path fill="none" stroke="black" d="M1738,-84.82C1738,-102.17 1738,-125.8 1738,-125.8 1738,-125.8 2766.32,-125.8 2766.32,-125.8"/>
<polygon fill="black" stroke="black" points="2766.32,-129.3 2776.32,-125.8 2766.32,-122.3 2766.32,-129.3"/>
</g>
<!-- SplitDialogComponent -->
<g id="node22" class="node">
<title>SplitDialogComponent</title>
<polygon fill="#ffffb3" stroke="black" points="1639.89,-84.8 1494.11,-84.8 1494.11,-48.8 1639.89,-48.8 1639.89,-84.8"/>
<text text-anchor="middle" x="1567" y="-62.6" font-family="Times,serif" font-size="14.00">SplitDialogComponent</text>
</g>
<!-- SplitDialogComponent&#45;&gt;AppModule -->
<g id="edge22" class="edge">
<title>SplitDialogComponent&#45;&gt;AppModule</title>
<path fill="none" stroke="black" d="M1567,-85.07C1567,-103.36 1567,-128.8 1567,-128.8 1567,-128.8 2766.02,-128.8 2766.02,-128.8"/>
<polygon fill="black" stroke="black" points="2766.02,-132.3 2776.02,-128.8 2766.02,-125.3 2766.02,-132.3"/>
</g>
<!-- TableEditingComponent -->
<g id="node23" class="node">
<title>TableEditingComponent</title>
<polygon fill="#ffffb3" stroke="black" points="1476.42,-84.8 1321.58,-84.8 1321.58,-48.8 1476.42,-48.8 1476.42,-84.8"/>
<text text-anchor="middle" x="1399" y="-62.6" font-family="Times,serif" font-size="14.00">TableEditingComponent</text>
</g>
<!-- TableEditingComponent&#45;&gt;AppModule -->
<g id="edge23" class="edge">
<title>TableEditingComponent&#45;&gt;AppModule</title>
<path fill="none" stroke="black" d="M1399,-84.97C1399,-103.89 1399,-130.8 1399,-130.8 1399,-130.8 2766.3,-130.8 2766.3,-130.8"/>
<polygon fill="black" stroke="black" points="2766.3,-134.3 2776.3,-130.8 2766.3,-127.3 2766.3,-134.3"/>
</g>
<!-- TableSelectionComponent -->
<g id="node24" class="node">
<title>TableSelectionComponent</title>
<polygon fill="#ffffb3" stroke="black" points="1303.8,-84.8 1138.2,-84.8 1138.2,-48.8 1303.8,-48.8 1303.8,-84.8"/>
<text text-anchor="middle" x="1221" y="-62.6" font-family="Times,serif" font-size="14.00">TableSelectionComponent</text>
</g>
<!-- TableSelectionComponent&#45;&gt;AppModule -->
<g id="edge24" class="edge">
<title>TableSelectionComponent&#45;&gt;AppModule</title>
<path fill="none" stroke="black" d="M1221,-85.11C1221,-104.95 1221,-133.8 1221,-133.8 1221,-133.8 2766.1,-133.8 2766.1,-133.8"/>
<polygon fill="black" stroke="black" points="2766.11,-137.3 2776.1,-133.8 2766.1,-130.3 2766.11,-137.3"/>
</g>
<!-- UndoRedoComponent -->
<g id="node25" class="node">
<title>UndoRedoComponent</title>
<polygon fill="#ffffb3" stroke="black" points="1119.99,-84.8 978.01,-84.8 978.01,-48.8 1119.99,-48.8 1119.99,-84.8"/>
<text text-anchor="middle" x="1049" y="-62.6" font-family="Times,serif" font-size="14.00">UndoRedoComponent</text>
</g>
<!-- UndoRedoComponent&#45;&gt;AppModule -->
<g id="edge25" class="edge">
<title>UndoRedoComponent&#45;&gt;AppModule</title>
<path fill="none" stroke="black" d="M1049,-84.93C1049,-105.37 1049,-135.8 1049,-135.8 1049,-135.8 2766.02,-135.8 2766.02,-135.8"/>
<polygon fill="black" stroke="black" points="2766.02,-139.3 2776.02,-135.8 2766.02,-132.3 2766.02,-139.3"/>
</g>
<!-- UnionDialogComponent -->
<g id="node26" class="node">
<title>UnionDialogComponent</title>
<polygon fill="#ffffb3" stroke="black" points="960.44,-84.8 805.56,-84.8 805.56,-48.8 960.44,-48.8 960.44,-84.8"/>
<text text-anchor="middle" x="883" y="-62.6" font-family="Times,serif" font-size="14.00">UnionDialogComponent</text>
</g>
<!-- UnionDialogComponent&#45;&gt;AppModule -->
<g id="edge26" class="edge">
<title>UnionDialogComponent&#45;&gt;AppModule</title>
<path fill="none" stroke="black" d="M883,-85.08C883,-106.12 883,-137.8 883,-137.8 883,-137.8 2766.24,-137.8 2766.24,-137.8"/>
<polygon fill="black" stroke="black" points="2766.24,-141.3 2776.24,-137.8 2766.24,-134.3 2766.24,-141.3"/>
</g>
<!-- UnionSidebarComponent -->
<g id="node27" class="node">
<title>UnionSidebarComponent</title>
<polygon fill="#ffffb3" stroke="black" points="787.6,-84.8 628.4,-84.8 628.4,-48.8 787.6,-48.8 787.6,-84.8"/>
<text text-anchor="middle" x="708" y="-62.6" font-family="Times,serif" font-size="14.00">UnionSidebarComponent</text>
</g>
<!-- UnionSidebarComponent&#45;&gt;AppModule -->
<g id="edge27" class="edge">
<title>UnionSidebarComponent&#45;&gt;AppModule</title>
<path fill="none" stroke="black" d="M708,-85.09C708,-107.01 708,-140.8 708,-140.8 708,-140.8 2766.33,-140.8 2766.33,-140.8"/>
<polygon fill="black" stroke="black" points="2766.33,-144.3 2776.33,-140.8 2766.33,-137.3 2766.33,-144.3"/>
</g>
<!-- ViolatingRowsViewComponent -->
<g id="node28" class="node">
<title>ViolatingRowsViewComponent</title>
<polygon fill="#ffffb3" stroke="black" points="610.44,-84.8 413.56,-84.8 413.56,-48.8 610.44,-48.8 610.44,-84.8"/>
<text text-anchor="middle" x="512" y="-62.6" font-family="Times,serif" font-size="14.00">ViolatingRowsViewComponent</text>
</g>
<!-- ViolatingRowsViewComponent&#45;&gt;AppModule -->
<g id="edge28" class="edge">
<title>ViolatingRowsViewComponent&#45;&gt;AppModule</title>
<path fill="none" stroke="black" d="M512,-84.81C512,-107.29 512,-142.8 512,-142.8 512,-142.8 2766.01,-142.8 2766.01,-142.8"/>
<polygon fill="black" stroke="black" points="2766.01,-146.3 2776.01,-142.8 2766.01,-139.3 2766.01,-146.3"/>
</g>
<!-- ViolatingRowsViewIndsComponent -->
<g id="node29" class="node">
<title>ViolatingRowsViewIndsComponent</title>
<polygon fill="#ffffb3" stroke="black" points="396.05,-84.8 175.95,-84.8 175.95,-48.8 396.05,-48.8 396.05,-84.8"/>
<text text-anchor="middle" x="286" y="-62.6" font-family="Times,serif" font-size="14.00">ViolatingRowsViewIndsComponent</text>
</g>
<!-- ViolatingRowsViewIndsComponent&#45;&gt;AppModule -->
<g id="edge29" class="edge">
<title>ViolatingRowsViewIndsComponent&#45;&gt;AppModule</title>
<path fill="none" stroke="black" d="M286,-85.12C286,-108.46 286,-145.8 286,-145.8 286,-145.8 2766.16,-145.8 2766.16,-145.8"/>
<polygon fill="black" stroke="black" points="2766.16,-149.3 2776.16,-145.8 2766.16,-142.3 2766.16,-149.3"/>
</g>
<!-- AppComponent  -->
<g id="node32" class="node">
<title>AppComponent </title>
<polygon fill="#80b1d3" stroke="black" points="2872.44,-214.8 2763.56,-214.8 2763.56,-178.8 2872.44,-178.8 2872.44,-214.8"/>
<text text-anchor="middle" x="2818" y="-192.6" font-family="Times,serif" font-size="14.00">AppComponent </text>
</g>
<!-- AppModule&#45;&gt;AppComponent  -->
<g id="edge31" class="edge">
<title>AppModule&#45;&gt;AppComponent </title>
<path fill="none" stroke="black" stroke-dasharray="1,5" d="M2818,-149.91C2818,-149.91 2818,-168.79 2818,-168.79"/>
<polygon fill="black" stroke="black" points="2814.5,-168.79 2818,-178.79 2821.5,-168.79 2814.5,-168.79"/>
</g>
<!-- AppRoutingModule -->
<g id="node31" class="node">
<title>AppRoutingModule</title>
<polygon fill="#8dd3c7" stroke="black" points="152.28,-84.8 149.28,-88.8 128.28,-88.8 125.28,-84.8 23.72,-84.8 23.72,-48.8 152.28,-48.8 152.28,-84.8"/>
<text text-anchor="middle" x="88" y="-62.6" font-family="Times,serif" font-size="14.00">AppRoutingModule</text>
</g>
<!-- AppRoutingModule&#45;&gt;AppModule -->
<g id="edge30" class="edge">
<title>AppRoutingModule&#45;&gt;AppModule</title>
<path fill="none" stroke="black" d="M88,-85.18C88,-109.08 88,-147.8 88,-147.8 88,-147.8 2766.21,-147.8 2766.21,-147.8"/>
<polygon fill="black" stroke="black" points="2766.21,-151.3 2776.21,-147.8 2766.21,-144.3 2766.21,-151.3"/>
</g>
</g>
</svg>
