<?xml version="1.0" encoding="UTF-8" standalone="no"?>
<!DOCTYPE svg PUBLIC "-//W3C//DTD SVG 1.1//EN"
 "http://www.w3.org/Graphics/SVG/1.1/DTD/svg11.dtd">
<!-- Generated by graphviz version 3.0.0 (20220226.1711)
 -->
<!-- Title: dependencies Pages: 1 -->
<svg width="5178pt" height="247pt"
 viewBox="0.00 0.00 5178.00 246.80" xmlns="http://www.w3.org/2000/svg" xmlns:xlink="http://www.w3.org/1999/xlink">
<g id="graph0" class="graph" transform="scale(1 1) rotate(0) translate(4 242.8)">
<title>dependencies</title>
<polygon fill="white" stroke="transparent" points="-4,4 -4,-242.8 5174,-242.8 5174,4 -4,4"/>
<text text-anchor="middle" x="2585" y="-8.2" font-family="sans-serif" font-size="14.00">dependencies</text>
<g id="clust1" class="cluster">
<title>cluster_AppModule</title>
<polygon fill="none" stroke="black" stroke-dasharray="1,5" points="8,-32.8 8,-230.8 5162,-230.8 5162,-32.8 8,-32.8"/>
</g>
<g id="clust29" class="cluster">
<title>cluster_AppModule_imports</title>
<polygon fill="none" stroke="black" points="5010,-40.8 5010,-92.8 5154,-92.8 5154,-40.8 5010,-40.8"/>
</g>
<g id="clust31" class="cluster">
<title>cluster_AppModule_bootstrap</title>
<polygon fill="none" stroke="black" points="2574,-170.8 2574,-222.8 2698,-222.8 2698,-170.8 2574,-170.8"/>
</g>
<g id="clust2" class="cluster">
<title>cluster_AppModule_declarations</title>
<polygon fill="none" stroke="black" points="16,-40.8 16,-92.8 5002,-92.8 5002,-40.8 16,-40.8"/>
</g>
<!-- AppComponent -->
<g id="node1" class="node">
<title>AppComponent</title>
<polygon fill="#ffffb3" stroke="black" points="4993.94,-84.8 4888.06,-84.8 4888.06,-48.8 4993.94,-48.8 4993.94,-84.8"/>
<text text-anchor="middle" x="4941" y="-62.6" font-family="Times,serif" font-size="14.00">AppComponent</text>
</g>
<!-- AppModule -->
<g id="node27" class="node">
<title>AppModule</title>
<polygon fill="#8dd3c7" stroke="black" points="2677.66,-149.8 2674.66,-153.8 2653.66,-153.8 2650.66,-149.8 2594.34,-149.8 2594.34,-113.8 2677.66,-113.8 2677.66,-149.8"/>
<text text-anchor="middle" x="2636" y="-127.6" font-family="Times,serif" font-size="14.00">AppModule</text>
</g>
<!-- AppComponent&#45;&gt;AppModule -->
<g id="edge1" class="edge">
<title>AppComponent&#45;&gt;AppModule</title>
<path fill="none" stroke="black" d="M4941,-84.89C4941,-107.93 4941,-144.8 4941,-144.8 4941,-144.8 2687.98,-144.8 2687.98,-144.8"/>
<polygon fill="black" stroke="black" points="2687.98,-141.3 2677.98,-144.8 2687.98,-148.3 2687.98,-141.3"/>
</g>
<!-- CheckIndComponent -->
<g id="node2" class="node">
<title>CheckIndComponent</title>
<polygon fill="#ffffb3" stroke="black" points="4869.76,-84.8 4734.24,-84.8 4734.24,-48.8 4869.76,-48.8 4869.76,-84.8"/>
<text text-anchor="middle" x="4802" y="-62.6" font-family="Times,serif" font-size="14.00">CheckIndComponent</text>
</g>
<!-- CheckIndComponent&#45;&gt;AppModule -->
<g id="edge2" class="edge">
<title>CheckIndComponent&#45;&gt;AppModule</title>
<path fill="none" stroke="black" d="M4802,-84.81C4802,-107.29 4802,-142.8 4802,-142.8 4802,-142.8 2687.81,-142.8 2687.81,-142.8"/>
<polygon fill="black" stroke="black" points="2687.81,-139.3 2677.81,-142.8 2687.81,-146.3 2687.81,-139.3"/>
</g>
<!-- ContainedSubtablesComponent -->
<g id="node3" class="node">
<title>ContainedSubtablesComponent</title>
<polygon fill="#ffffb3" stroke="black" points="4715.82,-84.8 4522.18,-84.8 4522.18,-48.8 4715.82,-48.8 4715.82,-84.8"/>
<text text-anchor="middle" x="4619" y="-62.6" font-family="Times,serif" font-size="14.00">ContainedSubtablesComponent</text>
</g>
<!-- ContainedSubtablesComponent&#45;&gt;AppModule -->
<g id="edge3" class="edge">
<title>ContainedSubtablesComponent&#45;&gt;AppModule</title>
<path fill="none" stroke="black" d="M4619,-84.84C4619,-106.46 4619,-139.8 4619,-139.8 4619,-139.8 2687.88,-139.8 2687.88,-139.8"/>
<polygon fill="black" stroke="black" points="2687.88,-136.3 2677.88,-139.8 2687.88,-143.3 2687.88,-136.3"/>
</g>
<!-- CustomFunctionalDependencySideBarComponent -->
<g id="node4" class="node">
<title>CustomFunctionalDependencySideBarComponent</title>
<polygon fill="#ffffb3" stroke="black" points="4503.85,-84.8 4204.15,-84.8 4204.15,-48.8 4503.85,-48.8 4503.85,-84.8"/>
<text text-anchor="middle" x="4354" y="-62.6" font-family="Times,serif" font-size="14.00">CustomFunctionalDependencySideBarComponent</text>
</g>
<!-- CustomFunctionalDependencySideBarComponent&#45;&gt;AppModule -->
<g id="edge4" class="edge">
<title>CustomFunctionalDependencySideBarComponent&#45;&gt;AppModule</title>
<path fill="none" stroke="black" d="M4354,-85.08C4354,-106.12 4354,-137.8 4354,-137.8 4354,-137.8 2688.04,-137.8 2688.04,-137.8"/>
<polygon fill="black" stroke="black" points="2688.04,-134.3 2678.04,-137.8 2688.04,-141.3 2688.04,-134.3"/>
</g>
<!-- DatabaseTableViewerComponent -->
<g id="node5" class="node">
<title>DatabaseTableViewerComponent</title>
<polygon fill="#ffffb3" stroke="black" points="4185.7,-84.8 3980.3,-84.8 3980.3,-48.8 4185.7,-48.8 4185.7,-84.8"/>
<text text-anchor="middle" x="4083" y="-62.6" font-family="Times,serif" font-size="14.00">DatabaseTableViewerComponent</text>
</g>
<!-- DatabaseTableViewerComponent&#45;&gt;AppModule -->
<g id="edge5" class="edge">
<title>DatabaseTableViewerComponent&#45;&gt;AppModule</title>
<path fill="none" stroke="black" d="M4083,-85.02C4083,-105.17 4083,-134.8 4083,-134.8 4083,-134.8 2687.75,-134.8 2687.75,-134.8"/>
<polygon fill="black" stroke="black" points="2687.75,-131.3 2677.75,-134.8 2687.75,-138.3 2687.75,-131.3"/>
</g>
<!-- DirectDimensionDialogComponent -->
<g id="node6" class="node">
<title>DirectDimensionDialogComponent</title>
<polygon fill="#ffffb3" stroke="black" points="3961.86,-84.8 3746.14,-84.8 3746.14,-48.8 3961.86,-48.8 3961.86,-84.8"/>
<text text-anchor="middle" x="3854" y="-62.6" font-family="Times,serif" font-size="14.00">DirectDimensionDialogComponent</text>
</g>
<!-- DirectDimensionDialogComponent&#45;&gt;AppModule -->
<g id="edge6" class="edge">
<title>DirectDimensionDialogComponent&#45;&gt;AppModule</title>
<path fill="none" stroke="black" d="M3854,-84.91C3854,-104.14 3854,-131.8 3854,-131.8 3854,-131.8 2687.93,-131.8 2687.93,-131.8"/>
<polygon fill="black" stroke="black" points="2687.93,-128.3 2677.93,-131.8 2687.93,-135.3 2687.93,-128.3"/>
</g>
<!-- ForeignKeysComponent -->
<g id="node7" class="node">
<title>ForeignKeysComponent</title>
<polygon fill="#ffffb3" stroke="black" points="3727.66,-84.8 3574.34,-84.8 3574.34,-48.8 3727.66,-48.8 3727.66,-84.8"/>
<text text-anchor="middle" x="3651" y="-62.6" font-family="Times,serif" font-size="14.00">ForeignKeysComponent</text>
</g>
<!-- ForeignKeysComponent&#45;&gt;AppModule -->
<g id="edge7" class="edge">
<title>ForeignKeysComponent&#45;&gt;AppModule</title>
<path fill="none" stroke="black" d="M3651,-85.02C3651,-103.63 3651,-129.8 3651,-129.8 3651,-129.8 2687.68,-129.8 2687.68,-129.8"/>
<polygon fill="black" stroke="black" points="2687.68,-126.3 2677.68,-129.8 2687.68,-133.3 2687.68,-126.3"/>
</g>
<!-- GraphElementComponent -->
<g id="node8" class="node">
<title>GraphElementComponent</title>
<polygon fill="#ffffb3" stroke="black" points="3556.47,-84.8 3393.53,-84.8 3393.53,-48.8 3556.47,-48.8 3556.47,-84.8"/>
<text text-anchor="middle" x="3475" y="-62.6" font-family="Times,serif" font-size="14.00">GraphElementComponent</text>
</g>
<!-- GraphElementComponent&#45;&gt;AppModule -->
<g id="edge8" class="edge">
<title>GraphElementComponent&#45;&gt;AppModule</title>
<path fill="none" stroke="black" d="M3475,-84.8C3475,-102.48 3475,-126.8 3475,-126.8 3475,-126.8 2687.89,-126.8 2687.89,-126.8"/>
<polygon fill="black" stroke="black" points="2687.89,-123.3 2677.89,-126.8 2687.89,-130.3 2687.89,-123.3"/>
</g>
<!-- HomeComponent -->
<g id="node9" class="node">
<title>HomeComponent</title>
<polygon fill="#ffffb3" stroke="black" points="3375.55,-84.8 3260.45,-84.8 3260.45,-48.8 3375.55,-48.8 3375.55,-84.8"/>
<text text-anchor="middle" x="3318" y="-62.6" font-family="Times,serif" font-size="14.00">HomeComponent</text>
</g>
<!-- HomeComponent&#45;&gt;AppModule -->
<g id="edge9" class="edge">
<title>HomeComponent&#45;&gt;AppModule</title>
<path fill="none" stroke="black" d="M3318,-84.83C3318,-101.86 3318,-124.8 3318,-124.8 3318,-124.8 2687.89,-124.8 2687.89,-124.8"/>
<polygon fill="black" stroke="black" points="2687.89,-121.3 2677.89,-124.8 2687.89,-128.3 2687.89,-121.3"/>
</g>
<!-- JoinDialogComponent -->
<g id="node10" class="node">
<title>JoinDialogComponent</title>
<polygon fill="#ffffb3" stroke="black" points="3242.27,-84.8 3099.73,-84.8 3099.73,-48.8 3242.27,-48.8 3242.27,-84.8"/>
<text text-anchor="middle" x="3171" y="-62.6" font-family="Times,serif" font-size="14.00">JoinDialogComponent</text>
</g>
<!-- JoinDialogComponent&#45;&gt;AppModule -->
<g id="edge10" class="edge">
<title>JoinDialogComponent&#45;&gt;AppModule</title>
<path fill="none" stroke="black" d="M3171,-84.81C3171,-100.85 3171,-121.8 3171,-121.8 3171,-121.8 2687.98,-121.8 2687.98,-121.8"/>
<polygon fill="black" stroke="black" points="2687.98,-118.3 2677.98,-121.8 2687.98,-125.3 2687.98,-118.3"/>
</g>
<!-- KeysComponent -->
<g id="node11" class="node">
<title>KeysComponent</title>
<polygon fill="#ffffb3" stroke="black" points="3082.1,-84.8 2971.9,-84.8 2971.9,-48.8 3082.1,-48.8 3082.1,-84.8"/>
<text text-anchor="middle" x="3027" y="-62.6" font-family="Times,serif" font-size="14.00">KeysComponent</text>
</g>
<!-- KeysComponent&#45;&gt;AppModule -->
<g id="edge11" class="edge">
<title>KeysComponent&#45;&gt;AppModule</title>
<path fill="none" stroke="black" d="M3027,-85.04C3027,-100.37 3027,-119.8 3027,-119.8 3027,-119.8 2687.84,-119.8 2687.84,-119.8"/>
<polygon fill="black" stroke="black" points="2687.84,-116.3 2677.84,-119.8 2687.84,-123.3 2687.84,-116.3"/>
</g>
<!-- LoadSavedSchemaComponent -->
<g id="node12" class="node">
<title>LoadSavedSchemaComponent</title>
<polygon fill="#ffffb3" stroke="black" points="2954.13,-84.8 2765.87,-84.8 2765.87,-48.8 2954.13,-48.8 2954.13,-84.8"/>
<text text-anchor="middle" x="2860" y="-62.6" font-family="Times,serif" font-size="14.00">LoadSavedSchemaComponent</text>
</g>
<!-- LoadSavedSchemaComponent&#45;&gt;AppModule -->
<g id="edge12" class="edge">
<title>LoadSavedSchemaComponent&#45;&gt;AppModule</title>
<path fill="none" stroke="black" d="M2860,-84.85C2860,-99.17 2860,-116.8 2860,-116.8 2860,-116.8 2687.87,-116.8 2687.87,-116.8"/>
<polygon fill="black" stroke="black" points="2687.87,-113.3 2677.87,-116.8 2687.87,-120.3 2687.87,-113.3"/>
</g>
<!-- MetanomeResultsViewerComponent -->
<g id="node13" class="node">
<title>MetanomeResultsViewerComponent</title>
<polygon fill="#ffffb3" stroke="black" points="2747.63,-84.8 2524.37,-84.8 2524.37,-48.8 2747.63,-48.8 2747.63,-84.8"/>
<text text-anchor="middle" x="2636" y="-62.6" font-family="Times,serif" font-size="14.00">MetanomeResultsViewerComponent</text>
</g>
<!-- MetanomeResultsViewerComponent&#45;&gt;AppModule -->
<g id="edge13" class="edge">
<title>MetanomeResultsViewerComponent&#45;&gt;AppModule</title>
<path fill="none" stroke="black" d="M2636,-84.91C2636,-84.91 2636,-103.79 2636,-103.79"/>
<polygon fill="black" stroke="black" points="2632.5,-103.79 2636,-113.79 2639.5,-103.79 2632.5,-103.79"/>
</g>
<!-- MetanomeSettingsComponent -->
<g id="node14" class="node">
<title>MetanomeSettingsComponent</title>
<polygon fill="#ffffb3" stroke="black" points="2506.32,-84.8 2319.68,-84.8 2319.68,-48.8 2506.32,-48.8 2506.32,-84.8"/>
<text text-anchor="middle" x="2413" y="-62.6" font-family="Times,serif" font-size="14.00">MetanomeSettingsComponent</text>
</g>
<!-- MetanomeSettingsComponent&#45;&gt;AppModule -->
<g id="edge14" class="edge">
<title>MetanomeSettingsComponent&#45;&gt;AppModule</title>
<path fill="none" stroke="black" d="M2413,-84.85C2413,-99.17 2413,-116.8 2413,-116.8 2413,-116.8 2584.32,-116.8 2584.32,-116.8"/>
<polygon fill="black" stroke="black" points="2584.32,-120.3 2594.32,-116.8 2584.32,-113.3 2584.32,-120.3"/>
</g>
<!-- PersistSchemaComponent -->
<g id="node15" class="node">
<title>PersistSchemaComponent</title>
<polygon fill="#ffffb3" stroke="black" points="2301.49,-84.8 2138.51,-84.8 2138.51,-48.8 2301.49,-48.8 2301.49,-84.8"/>
<text text-anchor="middle" x="2220" y="-62.6" font-family="Times,serif" font-size="14.00">PersistSchemaComponent</text>
</g>
<!-- PersistSchemaComponent&#45;&gt;AppModule -->
<g id="edge15" class="edge">
<title>PersistSchemaComponent&#45;&gt;AppModule</title>
<path fill="none" stroke="black" d="M2220,-85.04C2220,-100.37 2220,-119.8 2220,-119.8 2220,-119.8 2584.21,-119.8 2584.21,-119.8"/>
<polygon fill="black" stroke="black" points="2584.21,-123.3 2594.21,-119.8 2584.21,-116.3 2584.21,-123.3"/>
</g>
<!-- SaveSchemaEditingComponent -->
<g id="node16" class="node">
<title>SaveSchemaEditingComponent</title>
<polygon fill="#ffffb3" stroke="black" points="2120.08,-84.8 1925.92,-84.8 1925.92,-48.8 2120.08,-48.8 2120.08,-84.8"/>
<text text-anchor="middle" x="2023" y="-62.6" font-family="Times,serif" font-size="14.00">SaveSchemaEditingComponent</text>
</g>
<!-- SaveSchemaEditingComponent&#45;&gt;AppModule -->
<g id="edge16" class="edge">
<title>SaveSchemaEditingComponent&#45;&gt;AppModule</title>
<path fill="none" stroke="black" d="M2023,-84.81C2023,-100.85 2023,-121.8 2023,-121.8 2023,-121.8 2583.87,-121.8 2583.87,-121.8"/>
<polygon fill="black" stroke="black" points="2583.87,-125.3 2593.87,-121.8 2583.87,-118.3 2583.87,-125.3"/>
</g>
<!-- SbbOptionAllComponent -->
<g id="node17" class="node">
<title>SbbOptionAllComponent</title>
<polygon fill="#ffffb3" stroke="black" points="1907.9,-84.8 1748.1,-84.8 1748.1,-48.8 1907.9,-48.8 1907.9,-84.8"/>
<text text-anchor="middle" x="1828" y="-62.6" font-family="Times,serif" font-size="14.00">SbbOptionAllComponent</text>
</g>
<!-- SbbOptionAllComponent&#45;&gt;AppModule -->
<g id="edge17" class="edge">
<title>SbbOptionAllComponent&#45;&gt;AppModule</title>
<path fill="none" stroke="black" d="M1828,-84.83C1828,-101.86 1828,-124.8 1828,-124.8 1828,-124.8 2584.26,-124.8 2584.26,-124.8"/>
<polygon fill="black" stroke="black" points="2584.26,-128.3 2594.26,-124.8 2584.26,-121.3 2584.26,-128.3"/>
</g>
<!-- SchemaEditingComponent -->
<g id="node18" class="node">
<title>SchemaEditingComponent</title>
<polygon fill="#ffffb3" stroke="black" points="1730.37,-84.8 1563.63,-84.8 1563.63,-48.8 1730.37,-48.8 1730.37,-84.8"/>
<text text-anchor="middle" x="1647" y="-62.6" font-family="Times,serif" font-size="14.00">SchemaEditingComponent</text>
</g>
<!-- SchemaEditingComponent&#45;&gt;AppModule -->
<g id="edge18" class="edge">
<title>SchemaEditingComponent&#45;&gt;AppModule</title>
<path fill="none" stroke="black" d="M1647,-84.8C1647,-102.48 1647,-126.8 1647,-126.8 1647,-126.8 2584.14,-126.8 2584.14,-126.8"/>
<polygon fill="black" stroke="black" points="2584.14,-130.3 2594.14,-126.8 2584.14,-123.3 2584.14,-130.3"/>
</g>
<!-- SchemaEditingSideBarComponent -->
<g id="node19" class="node">
<title>SchemaEditingSideBarComponent</title>
<polygon fill="#ffffb3" stroke="black" points="1545.97,-84.8 1334.03,-84.8 1334.03,-48.8 1545.97,-48.8 1545.97,-84.8"/>
<text text-anchor="middle" x="1440" y="-62.6" font-family="Times,serif" font-size="14.00">SchemaEditingSideBarComponent</text>
</g>
<!-- SchemaEditingSideBarComponent&#45;&gt;AppModule -->
<g id="edge19" class="edge">
<title>SchemaEditingSideBarComponent&#45;&gt;AppModule</title>
<path fill="none" stroke="black" d="M1440,-85.02C1440,-103.63 1440,-129.8 1440,-129.8 1440,-129.8 2584.14,-129.8 2584.14,-129.8"/>
<polygon fill="black" stroke="black" points="2584.14,-133.3 2594.14,-129.8 2584.13,-126.3 2584.14,-133.3"/>
</g>
<!-- SchemaGraphComponent -->
<g id="node20" class="node">
<title>SchemaGraphComponent</title>
<polygon fill="#ffffb3" stroke="black" points="1316.14,-84.8 1155.86,-84.8 1155.86,-48.8 1316.14,-48.8 1316.14,-84.8"/>
<text text-anchor="middle" x="1236" y="-62.6" font-family="Times,serif" font-size="14.00">SchemaGraphComponent</text>
</g>
<!-- SchemaGraphComponent&#45;&gt;AppModule -->
<g id="edge20" class="edge">
<title>SchemaGraphComponent&#45;&gt;AppModule</title>
<path fill="none" stroke="black" d="M1236,-84.91C1236,-104.14 1236,-131.8 1236,-131.8 1236,-131.8 2584.1,-131.8 2584.1,-131.8"/>
<polygon fill="black" stroke="black" points="2584.1,-135.3 2594.1,-131.8 2584.1,-128.3 2584.1,-135.3"/>
</g>
<!-- SplitDialogComponent -->
<g id="node21" class="node">
<title>SplitDialogComponent</title>
<polygon fill="#ffffb3" stroke="black" points="1137.89,-84.8 992.11,-84.8 992.11,-48.8 1137.89,-48.8 1137.89,-84.8"/>
<text text-anchor="middle" x="1065" y="-62.6" font-family="Times,serif" font-size="14.00">SplitDialogComponent</text>
</g>
<!-- SplitDialogComponent&#45;&gt;AppModule -->
<g id="edge21" class="edge">
<title>SplitDialogComponent&#45;&gt;AppModule</title>
<path fill="none" stroke="black" d="M1065,-85.02C1065,-105.17 1065,-134.8 1065,-134.8 1065,-134.8 2583.98,-134.8 2583.98,-134.8"/>
<polygon fill="black" stroke="black" points="2583.98,-138.3 2593.98,-134.8 2583.98,-131.3 2583.98,-138.3"/>
</g>
<!-- TableEditingComponent -->
<g id="node22" class="node">
<title>TableEditingComponent</title>
<polygon fill="#ffffb3" stroke="black" points="974.42,-84.8 819.58,-84.8 819.58,-48.8 974.42,-48.8 974.42,-84.8"/>
<text text-anchor="middle" x="897" y="-62.6" font-family="Times,serif" font-size="14.00">TableEditingComponent</text>
</g>
<!-- TableEditingComponent&#45;&gt;AppModule -->
<g id="edge22" class="edge">
<title>TableEditingComponent&#45;&gt;AppModule</title>
<path fill="none" stroke="black" d="M897,-85.08C897,-106.12 897,-137.8 897,-137.8 897,-137.8 2584.3,-137.8 2584.3,-137.8"/>
<polygon fill="black" stroke="black" points="2584.3,-141.3 2594.3,-137.8 2584.3,-134.3 2584.3,-141.3"/>
</g>
<!-- TableSelectionComponent -->
<g id="node23" class="node">
<title>TableSelectionComponent</title>
<polygon fill="#ffffb3" stroke="black" points="801.8,-84.8 636.2,-84.8 636.2,-48.8 801.8,-48.8 801.8,-84.8"/>
<text text-anchor="middle" x="719" y="-62.6" font-family="Times,serif" font-size="14.00">TableSelectionComponent</text>
</g>
<!-- TableSelectionComponent&#45;&gt;AppModule -->
<g id="edge23" class="edge">
<title>TableSelectionComponent&#45;&gt;AppModule</title>
<path fill="none" stroke="black" d="M719,-84.84C719,-106.46 719,-139.8 719,-139.8 719,-139.8 2584.18,-139.8 2584.18,-139.8"/>
<polygon fill="black" stroke="black" points="2584.18,-143.3 2594.18,-139.8 2584.18,-136.3 2584.18,-143.3"/>
</g>
<!-- UndoRedoComponent -->
<g id="node24" class="node">
<title>UndoRedoComponent</title>
<polygon fill="#ffffb3" stroke="black" points="617.99,-84.8 476.01,-84.8 476.01,-48.8 617.99,-48.8 617.99,-84.8"/>
<text text-anchor="middle" x="547" y="-62.6" font-family="Times,serif" font-size="14.00">UndoRedoComponent</text>
</g>
<!-- UndoRedoComponent&#45;&gt;AppModule -->
<g id="edge24" class="edge">
<title>UndoRedoComponent&#45;&gt;AppModule</title>
<path fill="none" stroke="black" d="M547,-84.81C547,-107.29 547,-142.8 547,-142.8 547,-142.8 2584.27,-142.8 2584.27,-142.8"/>
<polygon fill="black" stroke="black" points="2584.27,-146.3 2594.27,-142.8 2584.27,-139.3 2584.27,-146.3"/>
</g>
<!-- ViolatingRowsViewComponent -->
<g id="node25" class="node">
<title>ViolatingRowsViewComponent</title>
<polygon fill="#ffffb3" stroke="black" points="458.44,-84.8 261.56,-84.8 261.56,-48.8 458.44,-48.8 458.44,-84.8"/>
<text text-anchor="middle" x="360" y="-62.6" font-family="Times,serif" font-size="14.00">ViolatingRowsViewComponent</text>
</g>
<!-- ViolatingRowsViewComponent&#45;&gt;AppModule -->
<g id="edge25" class="edge">
<title>ViolatingRowsViewComponent&#45;&gt;AppModule</title>
<path fill="none" stroke="black" d="M360,-84.89C360,-107.93 360,-144.8 360,-144.8 360,-144.8 2584.06,-144.8 2584.06,-144.8"/>
<polygon fill="black" stroke="black" points="2584.06,-148.3 2594.06,-144.8 2584.06,-141.3 2584.06,-148.3"/>
</g>
<!-- ViolatingRowsViewIndsComponent -->
<g id="node26" class="node">
<title>ViolatingRowsViewIndsComponent</title>
<polygon fill="#ffffb3" stroke="black" points="244.05,-84.8 23.95,-84.8 23.95,-48.8 244.05,-48.8 244.05,-84.8"/>
<text text-anchor="middle" x="134" y="-62.6" font-family="Times,serif" font-size="14.00">ViolatingRowsViewIndsComponent</text>
</g>
<!-- ViolatingRowsViewIndsComponent&#45;&gt;AppModule -->
<g id="edge26" class="edge">
<title>ViolatingRowsViewIndsComponent&#45;&gt;AppModule</title>
<path fill="none" stroke="black" d="M134,-85.18C134,-109.08 134,-147.8 134,-147.8 134,-147.8 2584.14,-147.8 2584.14,-147.8"/>
<polygon fill="black" stroke="black" points="2584.14,-151.3 2594.14,-147.8 2584.14,-144.3 2584.14,-151.3"/>
</g>
<!-- AppComponent  -->
<g id="node29" class="node">
<title>AppComponent </title>
<polygon fill="#80b1d3" stroke="black" points="2690.44,-214.8 2581.56,-214.8 2581.56,-178.8 2690.44,-178.8 2690.44,-214.8"/>
<text text-anchor="middle" x="2636" y="-192.6" font-family="Times,serif" font-size="14.00">AppComponent </text>
</g>
<!-- AppModule&#45;&gt;AppComponent  -->
<g id="edge28" class="edge">
<title>AppModule&#45;&gt;AppComponent </title>
<path fill="none" stroke="black" stroke-dasharray="1,5" d="M2636,-149.91C2636,-149.91 2636,-168.79 2636,-168.79"/>
<polygon fill="black" stroke="black" points="2632.5,-168.79 2636,-178.79 2639.5,-168.79 2632.5,-168.79"/>
</g>
<!-- AppRoutingModule -->
<g id="node28" class="node">
<title>AppRoutingModule</title>
<polygon fill="#8dd3c7" stroke="black" points="5146.28,-84.8 5143.28,-88.8 5122.28,-88.8 5119.28,-84.8 5017.72,-84.8 5017.72,-48.8 5146.28,-48.8 5146.28,-84.8"/>
<text text-anchor="middle" x="5082" y="-62.6" font-family="Times,serif" font-size="14.00">AppRoutingModule</text>
</g>
<!-- AppRoutingModule&#45;&gt;AppModule -->
<g id="edge27" class="edge">
<title>AppRoutingModule&#45;&gt;AppModule</title>
<path fill="none" stroke="black" d="M5082,-85.18C5082,-109.08 5082,-147.8 5082,-147.8 5082,-147.8 2687.68,-147.8 2687.68,-147.8"/>
<polygon fill="black" stroke="black" points="2687.68,-144.3 2677.68,-147.8 2687.68,-151.3 2687.68,-144.3"/>
</g>
</g>
</svg>
