<?xml version="1.0" encoding="UTF-8" standalone="no"?>
<!DOCTYPE svg PUBLIC "-//W3C//DTD SVG 1.1//EN"
 "http://www.w3.org/Graphics/SVG/1.1/DTD/svg11.dtd">
<!-- Generated by graphviz version 3.0.0 (20220226.1711)
 -->
<!-- Title: dependencies Pages: 1 -->
<svg width="5734pt" height="247pt"
 viewBox="0.00 0.00 5734.00 246.80" xmlns="http://www.w3.org/2000/svg" xmlns:xlink="http://www.w3.org/1999/xlink">
<g id="graph0" class="graph" transform="scale(1 1) rotate(0) translate(4 242.8)">
<title>dependencies</title>
<polygon fill="white" stroke="transparent" points="-4,4 -4,-242.8 5730,-242.8 5730,4 -4,4"/>
<text text-anchor="middle" x="2863" y="-8.2" font-family="sans-serif" font-size="14.00">dependencies</text>
<g id="clust1" class="cluster">
<title>cluster_AppModule</title>
<polygon fill="none" stroke="black" stroke-dasharray="1,5" points="8,-32.8 8,-230.8 5718,-230.8 5718,-32.8 8,-32.8"/>
</g>
<g id="clust32" class="cluster">
<title>cluster_AppModule_imports</title>
<polygon fill="none" stroke="black" points="5566,-40.8 5566,-92.8 5710,-92.8 5710,-40.8 5566,-40.8"/>
</g>
<g id="clust34" class="cluster">
<title>cluster_AppModule_bootstrap</title>
<polygon fill="none" stroke="black" points="2812,-170.8 2812,-222.8 2936,-222.8 2936,-170.8 2812,-170.8"/>
</g>
<g id="clust2" class="cluster">
<title>cluster_AppModule_declarations</title>
<polygon fill="none" stroke="black" points="16,-40.8 16,-92.8 5558,-92.8 5558,-40.8 16,-40.8"/>
</g>
<!-- AppComponent -->
<g id="node1" class="node">
<title>AppComponent</title>
<polygon fill="#ffffb3" stroke="black" points="5549.94,-84.8 5444.06,-84.8 5444.06,-48.8 5549.94,-48.8 5549.94,-84.8"/>
<text text-anchor="middle" x="5497" y="-62.6" font-family="Times,serif" font-size="14.00">AppComponent</text>
</g>
<!-- AppModule -->
<g id="node30" class="node">
<title>AppModule</title>
<polygon fill="#8dd3c7" stroke="black" points="2915.66,-149.8 2912.66,-153.8 2891.66,-153.8 2888.66,-149.8 2832.34,-149.8 2832.34,-113.8 2915.66,-113.8 2915.66,-149.8"/>
<text text-anchor="middle" x="2874" y="-127.6" font-family="Times,serif" font-size="14.00">AppModule</text>
</g>
<!-- AppComponent&#45;&gt;AppModule -->
<g id="edge1" class="edge">
<title>AppComponent&#45;&gt;AppModule</title>
<path fill="none" stroke="black" d="M5497,-85.12C5497,-108.46 5497,-145.8 5497,-145.8 5497,-145.8 2925.73,-145.8 2925.73,-145.8"/>
<polygon fill="black" stroke="black" points="2925.73,-142.3 2915.73,-145.8 2925.73,-149.3 2925.73,-142.3"/>
</g>
<!-- CheckIndComponent -->
<g id="node2" class="node">
<title>CheckIndComponent</title>
<polygon fill="#ffffb3" stroke="black" points="5425.76,-84.8 5290.24,-84.8 5290.24,-48.8 5425.76,-48.8 5425.76,-84.8"/>
<text text-anchor="middle" x="5358" y="-62.6" font-family="Times,serif" font-size="14.00">CheckIndComponent</text>
</g>
<!-- CheckIndComponent&#45;&gt;AppModule -->
<g id="edge2" class="edge">
<title>CheckIndComponent&#45;&gt;AppModule</title>
<path fill="none" stroke="black" d="M5358,-84.81C5358,-107.29 5358,-142.8 5358,-142.8 5358,-142.8 2925.81,-142.8 2925.81,-142.8"/>
<polygon fill="black" stroke="black" points="2925.81,-139.3 2915.81,-142.8 2925.81,-146.3 2925.81,-139.3"/>
</g>
<!-- ContainedSubtablesComponent -->
<g id="node3" class="node">
<title>ContainedSubtablesComponent</title>
<polygon fill="#ffffb3" stroke="black" points="5271.82,-84.8 5078.18,-84.8 5078.18,-48.8 5271.82,-48.8 5271.82,-84.8"/>
<text text-anchor="middle" x="5175" y="-62.6" font-family="Times,serif" font-size="14.00">ContainedSubtablesComponent</text>
</g>
<!-- ContainedSubtablesComponent&#45;&gt;AppModule -->
<g id="edge3" class="edge">
<title>ContainedSubtablesComponent&#45;&gt;AppModule</title>
<path fill="none" stroke="black" d="M5175,-85.09C5175,-107.01 5175,-140.8 5175,-140.8 5175,-140.8 2925.9,-140.8 2925.9,-140.8"/>
<polygon fill="black" stroke="black" points="2925.9,-137.3 2915.9,-140.8 2925.9,-144.3 2925.9,-137.3"/>
</g>
<!-- CustomFunctionalDependencySideBarComponent -->
<g id="node4" class="node">
<title>CustomFunctionalDependencySideBarComponent</title>
<polygon fill="#ffffb3" stroke="black" points="5059.85,-84.8 4760.15,-84.8 4760.15,-48.8 5059.85,-48.8 5059.85,-84.8"/>
<text text-anchor="middle" x="4910" y="-62.6" font-family="Times,serif" font-size="14.00">CustomFunctionalDependencySideBarComponent</text>
</g>
<!-- CustomFunctionalDependencySideBarComponent&#45;&gt;AppModule -->
<g id="edge4" class="edge">
<title>CustomFunctionalDependencySideBarComponent&#45;&gt;AppModule</title>
<path fill="none" stroke="black" d="M4910,-85.08C4910,-106.12 4910,-137.8 4910,-137.8 4910,-137.8 2926.06,-137.8 2926.06,-137.8"/>
<polygon fill="black" stroke="black" points="2926.06,-134.3 2916.06,-137.8 2926.06,-141.3 2926.06,-134.3"/>
</g>
<!-- DatabaseTableViewerComponent -->
<g id="node5" class="node">
<title>DatabaseTableViewerComponent</title>
<polygon fill="#ffffb3" stroke="black" points="4741.7,-84.8 4536.3,-84.8 4536.3,-48.8 4741.7,-48.8 4741.7,-84.8"/>
<text text-anchor="middle" x="4639" y="-62.6" font-family="Times,serif" font-size="14.00">DatabaseTableViewerComponent</text>
</g>
<!-- DatabaseTableViewerComponent&#45;&gt;AppModule -->
<g id="edge5" class="edge">
<title>DatabaseTableViewerComponent&#45;&gt;AppModule</title>
<path fill="none" stroke="black" d="M4639,-84.93C4639,-105.37 4639,-135.8 4639,-135.8 4639,-135.8 2925.89,-135.8 2925.89,-135.8"/>
<polygon fill="black" stroke="black" points="2925.89,-132.3 2915.89,-135.8 2925.89,-139.3 2925.89,-132.3"/>
</g>
<!-- DeleteTableDialogComponent -->
<g id="node6" class="node">
<title>DeleteTableDialogComponent</title>
<polygon fill="#ffffb3" stroke="black" points="4517.84,-84.8 4330.16,-84.8 4330.16,-48.8 4517.84,-48.8 4517.84,-84.8"/>
<text text-anchor="middle" x="4424" y="-62.6" font-family="Times,serif" font-size="14.00">DeleteTableDialogComponent</text>
</g>
<!-- DeleteTableDialogComponent&#45;&gt;AppModule -->
<g id="edge6" class="edge">
<title>DeleteTableDialogComponent&#45;&gt;AppModule</title>
<path fill="none" stroke="black" d="M4424,-85.11C4424,-104.95 4424,-133.8 4424,-133.8 4424,-133.8 2925.86,-133.8 2925.86,-133.8"/>
<polygon fill="black" stroke="black" points="2925.86,-130.3 2915.86,-133.8 2925.86,-137.3 2925.86,-130.3"/>
</g>
<!-- DirectDimensionDialogComponent -->
<g id="node7" class="node">
<title>DirectDimensionDialogComponent</title>
<polygon fill="#ffffb3" stroke="black" points="4311.86,-84.8 4096.14,-84.8 4096.14,-48.8 4311.86,-48.8 4311.86,-84.8"/>
<text text-anchor="middle" x="4204" y="-62.6" font-family="Times,serif" font-size="14.00">DirectDimensionDialogComponent</text>
</g>
<!-- DirectDimensionDialogComponent&#45;&gt;AppModule -->
<g id="edge7" class="edge">
<title>DirectDimensionDialogComponent&#45;&gt;AppModule</title>
<path fill="none" stroke="black" d="M4204,-84.97C4204,-103.89 4204,-130.8 4204,-130.8 4204,-130.8 2926,-130.8 2926,-130.8"/>
<polygon fill="black" stroke="black" points="2926,-127.3 2916,-130.8 2926,-134.3 2926,-127.3"/>
</g>
<!-- ForeignKeysComponent -->
<g id="node8" class="node">
<title>ForeignKeysComponent</title>
<polygon fill="#ffffb3" stroke="black" points="4077.66,-84.8 3924.34,-84.8 3924.34,-48.8 4077.66,-48.8 4077.66,-84.8"/>
<text text-anchor="middle" x="4001" y="-62.6" font-family="Times,serif" font-size="14.00">ForeignKeysComponent</text>
</g>
<!-- ForeignKeysComponent&#45;&gt;AppModule -->
<g id="edge8" class="edge">
<title>ForeignKeysComponent&#45;&gt;AppModule</title>
<path fill="none" stroke="black" d="M4001,-85.07C4001,-103.36 4001,-128.8 4001,-128.8 4001,-128.8 2925.78,-128.8 2925.78,-128.8"/>
<polygon fill="black" stroke="black" points="2925.78,-125.3 2915.78,-128.8 2925.78,-132.3 2925.78,-125.3"/>
</g>
<!-- GraphElementComponent -->
<g id="node9" class="node">
<title>GraphElementComponent</title>
<polygon fill="#ffffb3" stroke="black" points="3906.47,-84.8 3743.53,-84.8 3743.53,-48.8 3906.47,-48.8 3906.47,-84.8"/>
<text text-anchor="middle" x="3825" y="-62.6" font-family="Times,serif" font-size="14.00">GraphElementComponent</text>
</g>
<!-- GraphElementComponent&#45;&gt;AppModule -->
<g id="edge9" class="edge">
<title>GraphElementComponent&#45;&gt;AppModule</title>
<path fill="none" stroke="black" d="M3825,-84.82C3825,-102.17 3825,-125.8 3825,-125.8 3825,-125.8 2925.78,-125.8 2925.78,-125.8"/>
<polygon fill="black" stroke="black" points="2925.78,-122.3 2915.78,-125.8 2925.78,-129.3 2925.78,-122.3"/>
</g>
<!-- HomeComponent -->
<g id="node10" class="node">
<title>HomeComponent</title>
<polygon fill="#ffffb3" stroke="black" points="3725.55,-84.8 3610.45,-84.8 3610.45,-48.8 3725.55,-48.8 3725.55,-84.8"/>
<text text-anchor="middle" x="3668" y="-62.6" font-family="Times,serif" font-size="14.00">HomeComponent</text>
</g>
<!-- HomeComponent&#45;&gt;AppModule -->
<g id="edge10" class="edge">
<title>HomeComponent&#45;&gt;AppModule</title>
<path fill="none" stroke="black" d="M3668,-84.84C3668,-101.53 3668,-123.8 3668,-123.8 3668,-123.8 2925.85,-123.8 2925.85,-123.8"/>
<polygon fill="black" stroke="black" points="2925.85,-120.3 2915.85,-123.8 2925.85,-127.3 2925.85,-120.3"/>
</g>
<!-- JoinDialogComponent -->
<g id="node11" class="node">
<title>JoinDialogComponent</title>
<polygon fill="#ffffb3" stroke="black" points="3592.27,-84.8 3449.73,-84.8 3449.73,-48.8 3592.27,-48.8 3592.27,-84.8"/>
<text text-anchor="middle" x="3521" y="-62.6" font-family="Times,serif" font-size="14.00">JoinDialogComponent</text>
</g>
<!-- JoinDialogComponent&#45;&gt;AppModule -->
<g id="edge11" class="edge">
<title>JoinDialogComponent&#45;&gt;AppModule</title>
<path fill="none" stroke="black" d="M3521,-84.81C3521,-100.85 3521,-121.8 3521,-121.8 3521,-121.8 2925.95,-121.8 2925.95,-121.8"/>
<polygon fill="black" stroke="black" points="2925.95,-118.3 2915.95,-121.8 2925.95,-125.3 2925.95,-118.3"/>
</g>
<!-- KeysComponent -->
<g id="node12" class="node">
<title>KeysComponent</title>
<polygon fill="#ffffb3" stroke="black" points="3432.1,-84.8 3321.9,-84.8 3321.9,-48.8 3432.1,-48.8 3432.1,-84.8"/>
<text text-anchor="middle" x="3377" y="-62.6" font-family="Times,serif" font-size="14.00">KeysComponent</text>
</g>
<!-- KeysComponent&#45;&gt;AppModule -->
<g id="edge12" class="edge">
<title>KeysComponent&#45;&gt;AppModule</title>
<path fill="none" stroke="black" d="M3377,-84.99C3377,-99.98 3377,-118.8 3377,-118.8 3377,-118.8 2926.02,-118.8 2926.02,-118.8"/>
<polygon fill="black" stroke="black" points="2926.02,-115.3 2916.02,-118.8 2926.02,-122.3 2926.02,-115.3"/>
</g>
<!-- LoadSavedSchemaComponent -->
<g id="node13" class="node">
<title>LoadSavedSchemaComponent</title>
<polygon fill="#ffffb3" stroke="black" points="3304.13,-84.8 3115.87,-84.8 3115.87,-48.8 3304.13,-48.8 3304.13,-84.8"/>
<text text-anchor="middle" x="3210" y="-62.6" font-family="Times,serif" font-size="14.00">LoadSavedSchemaComponent</text>
</g>
<!-- LoadSavedSchemaComponent&#45;&gt;AppModule -->
<g id="edge13" class="edge">
<title>LoadSavedSchemaComponent&#45;&gt;AppModule</title>
<path fill="none" stroke="black" d="M3210,-84.85C3210,-99.17 3210,-116.8 3210,-116.8 3210,-116.8 2925.88,-116.8 2925.88,-116.8"/>
<polygon fill="black" stroke="black" points="2925.88,-113.3 2915.88,-116.8 2925.88,-120.3 2925.88,-113.3"/>
</g>
<!-- MetanomeResultsViewerComponent -->
<g id="node14" class="node">
<title>MetanomeResultsViewerComponent</title>
<polygon fill="#ffffb3" stroke="black" points="3097.63,-84.8 2874.37,-84.8 2874.37,-48.8 3097.63,-48.8 3097.63,-84.8"/>
<text text-anchor="middle" x="2986" y="-62.6" font-family="Times,serif" font-size="14.00">MetanomeResultsViewerComponent</text>
</g>
<!-- MetanomeResultsViewerComponent&#45;&gt;AppModule -->
<g id="edge14" class="edge">
<title>MetanomeResultsViewerComponent&#45;&gt;AppModule</title>
<path fill="none" stroke="black" d="M2895.01,-84.91C2895.01,-84.91 2895.01,-103.79 2895.01,-103.79"/>
<polygon fill="black" stroke="black" points="2891.51,-103.79 2895.01,-113.79 2898.51,-103.79 2891.51,-103.79"/>
</g>
<!-- MetanomeSettingsComponent -->
<g id="node15" class="node">
<title>MetanomeSettingsComponent</title>
<polygon fill="#ffffb3" stroke="black" points="2856.32,-84.8 2669.68,-84.8 2669.68,-48.8 2856.32,-48.8 2856.32,-84.8"/>
<text text-anchor="middle" x="2763" y="-62.6" font-family="Times,serif" font-size="14.00">MetanomeSettingsComponent</text>
</g>
<!-- MetanomeSettingsComponent&#45;&gt;AppModule -->
<g id="edge15" class="edge">
<title>MetanomeSettingsComponent&#45;&gt;AppModule</title>
<path fill="none" stroke="black" d="M2844.16,-84.91C2844.16,-84.91 2844.16,-103.79 2844.16,-103.79"/>
<polygon fill="black" stroke="black" points="2840.66,-103.79 2844.16,-113.79 2847.66,-103.79 2840.66,-103.79"/>
</g>
<!-- PersistSchemaComponent -->
<g id="node16" class="node">
<title>PersistSchemaComponent</title>
<polygon fill="#ffffb3" stroke="black" points="2651.49,-84.8 2488.51,-84.8 2488.51,-48.8 2651.49,-48.8 2651.49,-84.8"/>
<text text-anchor="middle" x="2570" y="-62.6" font-family="Times,serif" font-size="14.00">PersistSchemaComponent</text>
</g>
<!-- PersistSchemaComponent&#45;&gt;AppModule -->
<g id="edge16" class="edge">
<title>PersistSchemaComponent&#45;&gt;AppModule</title>
<path fill="none" stroke="black" d="M2570,-84.85C2570,-99.17 2570,-116.8 2570,-116.8 2570,-116.8 2822.05,-116.8 2822.05,-116.8"/>
<polygon fill="black" stroke="black" points="2822.05,-120.3 2832.05,-116.8 2822.05,-113.3 2822.05,-120.3"/>
</g>
<!-- SaveSchemaEditingComponent -->
<g id="node17" class="node">
<title>SaveSchemaEditingComponent</title>
<polygon fill="#ffffb3" stroke="black" points="2470.08,-84.8 2275.92,-84.8 2275.92,-48.8 2470.08,-48.8 2470.08,-84.8"/>
<text text-anchor="middle" x="2373" y="-62.6" font-family="Times,serif" font-size="14.00">SaveSchemaEditingComponent</text>
</g>
<!-- SaveSchemaEditingComponent&#45;&gt;AppModule -->
<g id="edge17" class="edge">
<title>SaveSchemaEditingComponent&#45;&gt;AppModule</title>
<path fill="none" stroke="black" d="M2373,-84.99C2373,-99.98 2373,-118.8 2373,-118.8 2373,-118.8 2822.15,-118.8 2822.15,-118.8"/>
<polygon fill="black" stroke="black" points="2822.15,-122.3 2832.15,-118.8 2822.15,-115.3 2822.15,-122.3"/>
</g>
<!-- SbbOptionAllComponent -->
<g id="node18" class="node">
<title>SbbOptionAllComponent</title>
<polygon fill="#ffffb3" stroke="black" points="2257.9,-84.8 2098.1,-84.8 2098.1,-48.8 2257.9,-48.8 2257.9,-84.8"/>
<text text-anchor="middle" x="2178" y="-62.6" font-family="Times,serif" font-size="14.00">SbbOptionAllComponent</text>
</g>
<!-- SbbOptionAllComponent&#45;&gt;AppModule -->
<g id="edge18" class="edge">
<title>SbbOptionAllComponent&#45;&gt;AppModule</title>
<path fill="none" stroke="black" d="M2178,-84.81C2178,-100.85 2178,-121.8 2178,-121.8 2178,-121.8 2822.29,-121.8 2822.29,-121.8"/>
<polygon fill="black" stroke="black" points="2822.29,-125.3 2832.29,-121.8 2822.29,-118.3 2822.29,-125.3"/>
</g>
<!-- SchemaEditingComponent -->
<g id="node19" class="node">
<title>SchemaEditingComponent</title>
<polygon fill="#ffffb3" stroke="black" points="2080.37,-84.8 1913.63,-84.8 1913.63,-48.8 2080.37,-48.8 2080.37,-84.8"/>
<text text-anchor="middle" x="1997" y="-62.6" font-family="Times,serif" font-size="14.00">SchemaEditingComponent</text>
</g>
<!-- SchemaEditingComponent&#45;&gt;AppModule -->
<g id="edge19" class="edge">
<title>SchemaEditingComponent&#45;&gt;AppModule</title>
<path fill="none" stroke="black" d="M1997,-84.84C1997,-101.53 1997,-123.8 1997,-123.8 1997,-123.8 2822.29,-123.8 2822.29,-123.8"/>
<polygon fill="black" stroke="black" points="2822.29,-127.3 2832.29,-123.8 2822.29,-120.3 2822.29,-127.3"/>
</g>
<!-- SchemaEditingSideBarComponent -->
<g id="node20" class="node">
<title>SchemaEditingSideBarComponent</title>
<polygon fill="#ffffb3" stroke="black" points="1895.97,-84.8 1684.03,-84.8 1684.03,-48.8 1895.97,-48.8 1895.97,-84.8"/>
<text text-anchor="middle" x="1790" y="-62.6" font-family="Times,serif" font-size="14.00">SchemaEditingSideBarComponent</text>
</g>
<!-- SchemaEditingSideBarComponent&#45;&gt;AppModule -->
<g id="edge20" class="edge">
<title>SchemaEditingSideBarComponent&#45;&gt;AppModule</title>
<path fill="none" stroke="black" d="M1790,-84.82C1790,-102.17 1790,-125.8 1790,-125.8 1790,-125.8 2822.17,-125.8 2822.17,-125.8"/>
<polygon fill="black" stroke="black" points="2822.17,-129.3 2832.17,-125.8 2822.17,-122.3 2822.17,-129.3"/>
</g>
<!-- SchemaGraphComponent -->
<g id="node21" class="node">
<title>SchemaGraphComponent</title>
<polygon fill="#ffffb3" stroke="black" points="1666.14,-84.8 1505.86,-84.8 1505.86,-48.8 1666.14,-48.8 1666.14,-84.8"/>
<text text-anchor="middle" x="1586" y="-62.6" font-family="Times,serif" font-size="14.00">SchemaGraphComponent</text>
</g>
<!-- SchemaGraphComponent&#45;&gt;AppModule -->
<g id="edge21" class="edge">
<title>SchemaGraphComponent&#45;&gt;AppModule</title>
<path fill="none" stroke="black" d="M1586,-85.07C1586,-103.36 1586,-128.8 1586,-128.8 1586,-128.8 2822.24,-128.8 2822.24,-128.8"/>
<polygon fill="black" stroke="black" points="2822.24,-132.3 2832.24,-128.8 2822.24,-125.3 2822.24,-132.3"/>
</g>
<!-- SplitDialogComponent -->
<g id="node22" class="node">
<title>SplitDialogComponent</title>
<polygon fill="#ffffb3" stroke="black" points="1487.89,-84.8 1342.11,-84.8 1342.11,-48.8 1487.89,-48.8 1487.89,-84.8"/>
<text text-anchor="middle" x="1415" y="-62.6" font-family="Times,serif" font-size="14.00">SplitDialogComponent</text>
</g>
<!-- SplitDialogComponent&#45;&gt;AppModule -->
<g id="edge22" class="edge">
<title>SplitDialogComponent&#45;&gt;AppModule</title>
<path fill="none" stroke="black" d="M1415,-84.97C1415,-103.89 1415,-130.8 1415,-130.8 1415,-130.8 2822.3,-130.8 2822.3,-130.8"/>
<polygon fill="black" stroke="black" points="2822.3,-134.3 2832.3,-130.8 2822.3,-127.3 2822.3,-134.3"/>
</g>
<!-- TableEditingComponent -->
<g id="node23" class="node">
<title>TableEditingComponent</title>
<polygon fill="#ffffb3" stroke="black" points="1324.42,-84.8 1169.58,-84.8 1169.58,-48.8 1324.42,-48.8 1324.42,-84.8"/>
<text text-anchor="middle" x="1247" y="-62.6" font-family="Times,serif" font-size="14.00">TableEditingComponent</text>
</g>
<!-- TableEditingComponent&#45;&gt;AppModule -->
<g id="edge23" class="edge">
<title>TableEditingComponent&#45;&gt;AppModule</title>
<path fill="none" stroke="black" d="M1247,-85.11C1247,-104.95 1247,-133.8 1247,-133.8 1247,-133.8 2822.15,-133.8 2822.15,-133.8"/>
<polygon fill="black" stroke="black" points="2822.15,-137.3 2832.15,-133.8 2822.15,-130.3 2822.15,-137.3"/>
</g>
<!-- TableSelectionComponent -->
<g id="node24" class="node">
<title>TableSelectionComponent</title>
<polygon fill="#ffffb3" stroke="black" points="1151.8,-84.8 986.2,-84.8 986.2,-48.8 1151.8,-48.8 1151.8,-84.8"/>
<text text-anchor="middle" x="1069" y="-62.6" font-family="Times,serif" font-size="14.00">TableSelectionComponent</text>
</g>
<!-- TableSelectionComponent&#45;&gt;AppModule -->
<g id="edge24" class="edge">
<title>TableSelectionComponent&#45;&gt;AppModule</title>
<path fill="none" stroke="black" d="M1069,-84.93C1069,-105.37 1069,-135.8 1069,-135.8 1069,-135.8 2822.04,-135.8 2822.04,-135.8"/>
<polygon fill="black" stroke="black" points="2822.04,-139.3 2832.04,-135.8 2822.04,-132.3 2822.04,-139.3"/>
</g>
<!-- UndoRedoComponent -->
<g id="node25" class="node">
<title>UndoRedoComponent</title>
<polygon fill="#ffffb3" stroke="black" points="967.99,-84.8 826.01,-84.8 826.01,-48.8 967.99,-48.8 967.99,-84.8"/>
<text text-anchor="middle" x="897" y="-62.6" font-family="Times,serif" font-size="14.00">UndoRedoComponent</text>
</g>
<!-- UndoRedoComponent&#45;&gt;AppModule -->
<g id="edge25" class="edge">
<title>UndoRedoComponent&#45;&gt;AppModule</title>
<path fill="none" stroke="black" d="M897,-85.08C897,-106.12 897,-137.8 897,-137.8 897,-137.8 2822.25,-137.8 2822.25,-137.8"/>
<polygon fill="black" stroke="black" points="2822.25,-141.3 2832.25,-137.8 2822.25,-134.3 2822.25,-141.3"/>
</g>
<!-- UnionDialogComponent -->
<g id="node26" class="node">
<title>UnionDialogComponent</title>
<polygon fill="#ffffb3" stroke="black" points="808.44,-84.8 653.56,-84.8 653.56,-48.8 808.44,-48.8 808.44,-84.8"/>
<text text-anchor="middle" x="731" y="-62.6" font-family="Times,serif" font-size="14.00">UnionDialogComponent</text>
</g>
<!-- UnionDialogComponent&#45;&gt;AppModule -->
<g id="edge26" class="edge">
<title>UnionDialogComponent&#45;&gt;AppModule</title>
<path fill="none" stroke="black" d="M731,-85.09C731,-107.01 731,-140.8 731,-140.8 731,-140.8 2822.15,-140.8 2822.15,-140.8"/>
<polygon fill="black" stroke="black" points="2822.15,-144.3 2832.15,-140.8 2822.15,-137.3 2822.15,-144.3"/>
</g>
<!-- UnionSidebarComponent -->
<g id="node27" class="node">
<title>UnionSidebarComponent</title>
<polygon fill="#ffffb3" stroke="black" points="635.6,-84.8 476.4,-84.8 476.4,-48.8 635.6,-48.8 635.6,-84.8"/>
<text text-anchor="middle" x="556" y="-62.6" font-family="Times,serif" font-size="14.00">UnionSidebarComponent</text>
</g>
<!-- UnionSidebarComponent&#45;&gt;AppModule -->
<g id="edge27" class="edge">
<title>UnionSidebarComponent&#45;&gt;AppModule</title>
<path fill="none" stroke="black" d="M556,-84.81C556,-107.29 556,-142.8 556,-142.8 556,-142.8 2822.29,-142.8 2822.29,-142.8"/>
<polygon fill="black" stroke="black" points="2822.29,-146.3 2832.29,-142.8 2822.29,-139.3 2822.29,-146.3"/>
</g>
<!-- ViolatingRowsViewComponent -->
<g id="node28" class="node">
<title>ViolatingRowsViewComponent</title>
<polygon fill="#ffffb3" stroke="black" points="458.44,-84.8 261.56,-84.8 261.56,-48.8 458.44,-48.8 458.44,-84.8"/>
<text text-anchor="middle" x="360" y="-62.6" font-family="Times,serif" font-size="14.00">ViolatingRowsViewComponent</text>
</g>
<!-- ViolatingRowsViewComponent&#45;&gt;AppModule -->
<g id="edge28" class="edge">
<title>ViolatingRowsViewComponent&#45;&gt;AppModule</title>
<path fill="none" stroke="black" d="M360,-85.12C360,-108.46 360,-145.8 360,-145.8 360,-145.8 2822.2,-145.8 2822.2,-145.8"/>
<polygon fill="black" stroke="black" points="2822.2,-149.3 2832.2,-145.8 2822.2,-142.3 2822.2,-149.3"/>
</g>
<!-- ViolatingRowsViewIndsComponent -->
<g id="node29" class="node">
<title>ViolatingRowsViewIndsComponent</title>
<polygon fill="#ffffb3" stroke="black" points="244.05,-84.8 23.95,-84.8 23.95,-48.8 244.05,-48.8 244.05,-84.8"/>
<text text-anchor="middle" x="134" y="-62.6" font-family="Times,serif" font-size="14.00">ViolatingRowsViewIndsComponent</text>
</g>
<!-- ViolatingRowsViewIndsComponent&#45;&gt;AppModule -->
<g id="edge29" class="edge">
<title>ViolatingRowsViewIndsComponent&#45;&gt;AppModule</title>
<path fill="none" stroke="black" d="M134,-85.18C134,-109.08 134,-147.8 134,-147.8 134,-147.8 2822.33,-147.8 2822.33,-147.8"/>
<polygon fill="black" stroke="black" points="2822.33,-151.3 2832.33,-147.8 2822.33,-144.3 2822.33,-151.3"/>
</g>
<!-- AppComponent  -->
<g id="node32" class="node">
<title>AppComponent </title>
<polygon fill="#80b1d3" stroke="black" points="2928.44,-214.8 2819.56,-214.8 2819.56,-178.8 2928.44,-178.8 2928.44,-214.8"/>
<text text-anchor="middle" x="2874" y="-192.6" font-family="Times,serif" font-size="14.00">AppComponent </text>
</g>
<!-- AppModule&#45;&gt;AppComponent  -->
<g id="edge31" class="edge">
<title>AppModule&#45;&gt;AppComponent </title>
<path fill="none" stroke="black" stroke-dasharray="1,5" d="M2874,-149.91C2874,-149.91 2874,-168.79 2874,-168.79"/>
<polygon fill="black" stroke="black" points="2870.5,-168.79 2874,-178.79 2877.5,-168.79 2870.5,-168.79"/>
</g>
<!-- AppRoutingModule -->
<g id="node31" class="node">
<title>AppRoutingModule</title>
<polygon fill="#8dd3c7" stroke="black" points="5702.28,-84.8 5699.28,-88.8 5678.28,-88.8 5675.28,-84.8 5573.72,-84.8 5573.72,-48.8 5702.28,-48.8 5702.28,-84.8"/>
<text text-anchor="middle" x="5638" y="-62.6" font-family="Times,serif" font-size="14.00">AppRoutingModule</text>
</g>
<!-- AppRoutingModule&#45;&gt;AppModule -->
<g id="edge30" class="edge">
<title>AppRoutingModule&#45;&gt;AppModule</title>
<path fill="none" stroke="black" d="M5638,-85.18C5638,-109.08 5638,-147.8 5638,-147.8 5638,-147.8 2925.76,-147.8 2925.76,-147.8"/>
<polygon fill="black" stroke="black" points="2925.76,-144.3 2915.76,-147.8 2925.76,-151.3 2925.76,-144.3"/>
</g>
</g>
</svg>
